<svg width="40" height="40" viewBox="0 0 40 40" fill="none" xmlns="http://www.w3.org/2000/svg">
<path d="M22 10C22 15.5234 18.4188 20 14 20C9.58125 20 6 15.5234 6 10C6 4.47656 9.58125 0 14 0C18.4188 0 22 4.47656 22 10ZM0 37.6797C0 29.9844 4.9875 23.75 11.1438 23.75H16.8563C23.0125 23.75 28 29.9844 28 37.6797C28 38.9609 27.1687 40 26.1437 40H1.85625C0.83125 40 0 38.9609 0 37.6797ZM31.5 24.375V19.375H27.5C26.6688 19.375 26 18.5391 26 17.5C26 16.4609 26.6688 15.625 27.5 15.625H31.5V10.625C31.5 9.58594 32.1688 8.75 33 8.75C33.8312 8.75 34.5 9.58594 34.5 10.625V15.625H38.5C39.3312 15.625 40 16.4609 40 17.5C40 18.5391 39.3312 19.375 38.5 19.375H34.5V24.375C34.5 25.4141 33.8312 26.25 33 26.25C32.1688 26.25 31.5 25.4141 31.5 24.375Z" fill="#FF7500"/>
</svg>
