<svg width="45" height="40" viewBox="0 0 45 40" fill="none" xmlns="http://www.w3.org/2000/svg">
<path d="M37.6172 3.20313C36.9563 2.46875 36.9563 1.28125 37.6172 0.554691C38.2781 -0.171871 39.3469 -0.179684 40.0008 0.554691L44.5008 5.55469C44.8172 5.90625 44.993 6.38282 44.993 6.88282C44.993 7.38282 44.8172 7.85938 44.5008 8.21094L40.0008 13.2109C39.3399 13.9453 38.2711 13.9453 37.6172 13.2109C36.9633 12.4766 36.9563 11.2891 37.6172 10.5625L39.2344 8.76563L27 8.75C26.0648 8.75 25.3125 7.91407 25.3125 6.875C25.3125 5.83594 26.0648 5 27 5H39.2414L37.6172 3.20313ZM7.38281 29.4531L5.76563 31.25H18C18.9352 31.25 19.6875 32.0859 19.6875 33.125C19.6875 34.1641 18.9352 35 18 35H5.75859L7.37578 36.7969C8.03672 37.5313 8.03672 38.7188 7.37578 39.4453C6.71484 40.1719 5.64609 40.1797 4.99219 39.4453L0.492188 34.4531C0.175781 34.1016 0 33.625 0 33.125C0 32.625 0.175781 32.1484 0.492188 31.7969L4.99219 26.7969C5.65313 26.0625 6.72188 26.0625 7.37578 26.7969C8.02969 27.5313 8.03672 28.7188 7.37578 29.4453L7.38281 29.4531ZM6.75 5H23.7586C23.4984 5.5625 23.3438 6.19532 23.3438 6.875C23.3438 9.11719 24.982 10.9375 27 10.9375H35.2547C34.9734 12.2656 35.2969 13.7109 36.225 14.75C37.6523 16.3359 39.9656 16.3359 41.393 14.75L42.75 13.2422V30C42.75 32.7578 40.732 35 38.25 35H21.2414C21.5016 34.4375 21.6563 33.8047 21.6563 33.125C21.6563 30.8828 20.018 29.0625 18 29.0625H9.74531C10.0266 27.7344 9.70313 26.2891 8.775 25.25C7.34766 23.6641 5.03438 23.6641 3.60703 25.25L2.25 26.7578V10C2.25 7.24219 4.26797 5 6.75 5ZM11.25 10H6.75V15C9.23203 15 11.25 12.7578 11.25 10ZM38.25 25C35.768 25 33.75 27.2422 33.75 30H38.25V25ZM22.5 27.5C26.2266 27.5 29.25 24.1406 29.25 20C29.25 15.8594 26.2266 12.5 22.5 12.5C18.7734 12.5 15.75 15.8594 15.75 20C15.75 24.1406 18.7734 27.5 22.5 27.5Z" fill="#FB7907"/>
</svg>
