<svg width="20" height="20" viewBox="0 0 20 20" fill="none" xmlns="http://www.w3.org/2000/svg">
<path d="M19.543 17.332L14.8672 12.6562C15.9305 11.0777 16.4551 9.10546 16.1742 7.0039C15.6953 3.42929 12.7656 0.520314 9.18751 0.0673064C3.86759 -0.605857 -0.605843 3.86758 0.0673596 9.18749C0.520485 12.7672 3.42986 15.6992 7.00486 16.1758C9.10642 16.4566 11.0791 15.9322 12.6572 14.8687L17.333 19.5445C17.9431 20.1547 18.9326 20.1547 19.5427 19.5445C20.1524 18.9336 20.1524 17.9414 19.543 17.332ZM3.08986 8.12499C3.08986 5.36796 5.33283 3.125 8.08986 3.125C10.8469 3.125 13.0899 5.36796 13.0899 8.12499C13.0899 10.882 10.8469 13.125 8.08986 13.125C5.33283 13.125 3.08986 10.8828 3.08986 8.12499Z" fill="black" fill-opacity="0.5"/>
</svg>
