<svg width="38" height="40" viewBox="0 0 38 40" fill="none" xmlns="http://www.w3.org/2000/svg">
<path d="M37.7422 13.0156C37.9922 13.6953 37.7813 14.4531 37.2422 14.9375L33.8594 18.0156C33.9453 18.6641 33.9922 19.3281 33.9922 20C33.9922 20.6719 33.9453 21.3359 33.8594 21.9844L37.2422 25.0625C37.7813 25.5469 37.9922 26.3047 37.7422 26.9844C37.3984 27.9141 36.9844 28.8047 36.5078 29.6641L36.1406 30.2969C35.625 31.1562 35.0469 31.9688 34.4141 32.7344C33.9531 33.2969 33.1875 33.4844 32.5 33.2656L28.1484 31.8828C27.1016 32.6875 25.9453 33.3594 24.7109 33.8672L23.7344 38.3281C23.5781 39.0391 23.0313 39.6016 22.3125 39.7188C21.2344 39.8984 20.125 39.9922 18.9922 39.9922C17.8594 39.9922 16.75 39.8984 15.6719 39.7188C14.9531 39.6016 14.4063 39.0391 14.25 38.3281L13.2734 33.8672C12.0391 33.3594 10.8828 32.6875 9.83594 31.8828L5.49219 33.2734C4.80469 33.4922 4.03907 33.2969 3.57813 32.7422C2.94532 31.9766 2.36719 31.1641 1.85157 30.3047L1.48438 29.6719C1.00782 28.8125 0.593755 27.9219 0.250005 26.9922C4.82798e-06 26.3125 0.210942 25.5547 0.750005 25.0703L4.13282 21.9922C4.04688 21.3359 4 20.6719 4 20C4 19.3281 4.04688 18.6641 4.13282 18.0156L0.750005 14.9375C0.210942 14.4531 4.82798e-06 13.6953 0.250005 13.0156C0.593755 12.0859 1.00782 11.1953 1.48438 10.3359L1.85157 9.70312C2.36719 8.84375 2.94532 8.03125 3.57813 7.26562C4.03907 6.70312 4.80469 6.51562 5.49219 6.73438L9.84375 8.11719C10.8906 7.3125 12.0469 6.64062 13.2813 6.13281L14.2578 1.67188C14.4141 0.960937 14.9609 0.398438 15.6797 0.28125C16.7578 0.09375 17.8672 0 19 0C20.1328 0 21.2422 0.09375 22.3203 0.273438C23.0391 0.390625 23.5859 0.953125 23.7422 1.66406L24.7188 6.125C25.9531 6.63281 27.1094 7.30469 28.1563 8.10938L32.5078 6.72656C33.1953 6.50781 33.9609 6.70312 34.4219 7.25781C35.0547 8.02344 35.6328 8.83594 36.1484 9.69531L36.5156 10.3281C36.9922 11.1875 37.4063 12.0781 37.75 13.0078L37.7422 13.0156ZM19 26.25C22.4531 26.25 25.25 23.4531 25.25 20C25.25 16.5469 22.4531 13.75 19 13.75C15.5469 13.75 12.75 16.5469 12.75 20C12.75 23.4531 15.5469 26.25 19 26.25Z" fill="#FB7907"/>
</svg>
