<svg width="40" height="40" viewBox="0 0 40 40" fill="none" xmlns="http://www.w3.org/2000/svg">
<path d="M22.5 8.53906V27.5C22.5 28.8828 21.3828 30 20 30C18.6172 30 17.5 28.8828 17.5 27.5V8.53906L11.7656 14.2734C10.7891 15.25 9.20312 15.25 8.22656 14.2734C7.25 13.2969 7.25 11.7109 8.22656 10.7344L18.2266 0.734375C19.2031 -0.242188 20.7891 -0.242188 21.7656 0.734375L31.7656 10.7344C32.7422 11.7109 32.7422 13.2969 31.7656 14.2734C30.7891 15.25 29.2031 15.25 28.2266 14.2734L22.5 8.53906ZM5 27.5H15C15 30.2578 17.2422 32.5 20 32.5C22.7578 32.5 25 30.2578 25 27.5H35C37.7578 27.5 40 29.7422 40 32.5V35C40 37.7578 37.7578 40 35 40H5C2.24219 40 0 37.7578 0 35V32.5C0 29.7422 2.24219 27.5 5 27.5ZM33.75 35.625C34.7891 35.625 35.625 34.7891 35.625 33.75C35.625 32.7109 34.7891 31.875 33.75 31.875C32.7109 31.875 31.875 32.7109 31.875 33.75C31.875 34.7891 32.7109 35.625 33.75 35.625Z" fill="#FF7500"/>
</svg>
